# xmcd
#
# Track frame offsets: 
#        150
#        18687
#        39469
#        53561
#        67377
#        80159
#        97599
#        119337
#        138445
#        158409
#        173976
#        194520
#
# Disc length: 2924 seconds
#
# Revision: 0
# Processed by: cddbd v1.5.2PL0 Copyright (c) Steve Scherf et al.
# Submitted via: ExactAudioCopy v0.95a5
#
DISCID=a10b6a0c
DTITLE=Jay Shaner - Best Laid Plans
DYEAR=2008
DGENRE=Folk/Rock
TTITLE0=Talk Me To Sleep
TTITLE1=The Astronaut Song
TTITLE2=Stuck in the Fallout
TTITLE3=Best Laid Plans
TTITLE4=Aliens
TTITLE5=The Banana and Wine Song
TTITLE6=Fall Through the Cracks
TTITLE7=Highway One
TTITLE8=2nd Hand Heart
TTITLE9=Please Don't Go
TTITLE10=Out of My Hands
TTITLE11=Hallelujah
EXTD=
EXTT0=
EXTT1=
EXTT2=
EXTT3=
EXTT4=
EXTT5=
EXTT6=
EXTT7=
EXTT8=
EXTT9=
EXTT10=
EXTT11=
PLAYORDER=
